<svg width="37" height="37" viewBox="0 0 37 37" fill="none" xmlns="http://www.w3.org/2000/svg">
<path d="M18.9399 9.19846C18.8815 9.20655 18.8243 9.22174 18.7699 9.24375L3.53439 15.0479C3.25023 15.1534 3.06146 15.4247 3.06146 15.728C3.06146 16.0312 3.25023 16.3024 3.53439 16.4082L8.87368 18.4373V24.7968C8.87368 25.5369 9.29347 26.1756 9.87138 26.6558C10.4491 27.1361 11.2092 27.5144 12.1158 27.8233C13.929 28.4412 16.346 28.7869 19.0307 28.7869C21.7154 28.7869 24.1324 28.4412 25.9456 27.8233C26.8522 27.5144 27.6123 27.1361 28.19 26.6558C28.768 26.1756 29.1877 25.5369 29.1877 24.7968V21.1693C29.1905 20.975 29.1151 20.7877 28.9787 20.6496C28.8426 20.5112 28.6563 20.4335 28.4623 20.4335C28.2679 20.4335 28.0819 20.5112 27.9456 20.6496C27.8092 20.7877 27.734 20.975 27.7365 21.1693V24.7968C27.7365 25.0005 27.632 25.2361 27.2606 25.5448C26.8889 25.8537 26.2768 26.1804 25.4807 26.4517C23.8889 26.9942 21.5883 27.336 19.0306 27.336C16.473 27.336 14.1724 26.9942 12.5805 26.4517C11.7845 26.1804 11.1724 25.8537 10.8007 25.5448C10.4292 25.2361 10.3247 25.0005 10.3247 24.7968V18.9927L18.7703 22.212C18.9381 22.2768 19.1238 22.2768 19.2916 22.212L34.5271 16.4081C34.8112 16.3024 35 16.0311 35 15.728C35 15.4246 34.8112 15.1533 34.5271 15.0478L19.2916 9.24368C19.2012 9.20978 19.1048 9.19434 19.0082 9.19839C18.9856 9.19738 18.9629 9.19738 18.9403 9.19839L18.9399 9.19846ZM19.0305 10.706L32.2256 15.728L19.0305 20.7497L5.83548 15.728L19.0305 10.706Z" fill="white"/>
</svg>
