<svg width="136" height="144" viewBox="0 0 136 144" fill="none" xmlns="http://www.w3.org/2000/svg">
<rect x="0.931061" width="134.905" height="144" rx="11" fill="#26272D"/>
<path d="M87.6934 61.3332L67.816 74.0415L47.9387 61.3332V56.2498L67.816 68.9582L87.6934 56.2498M87.6934 51.1665H47.9387C45.1807 51.1665 42.9693 53.4286 42.9693 56.2498V86.7498C42.9693 88.098 43.4929 89.391 44.4248 90.3443C45.3568 91.2976 46.6207 91.8332 47.9387 91.8332H87.6934C89.0113 91.8332 90.2753 91.2976 91.2072 90.3443C92.1392 89.391 92.6627 88.098 92.6627 86.7498V56.2498C92.6627 54.9017 92.1392 53.6087 91.2072 52.6554C90.2753 51.7021 89.0113 51.1665 87.6934 51.1665Z" fill="white"/>
</svg>
