<svg width="37" height="37" viewBox="0 0 37 37" fill="none" xmlns="http://www.w3.org/2000/svg">
<path d="M31.7484 9H7.22846C6.63751 9.00083 6.07115 9.23579 5.65347 9.65347C5.23557 10.0712 5.00058 10.6377 5 11.2285V26.3282C5.00062 26.9189 5.23558 27.4855 5.65347 27.9031C6.07117 28.3208 6.63751 28.5558 7.22846 28.5566H31.7494C32.3401 28.5556 32.9061 28.3204 33.3236 27.9027C33.741 27.485 33.976 26.9187 33.9766 26.3282V11.2285C33.976 10.6377 33.741 10.0712 33.3231 9.65347C32.9054 9.23578 32.3391 9.00079 31.7481 9H31.7484ZM6.13167 26.3282V11.2285C6.13208 11.1676 6.13745 11.1066 6.14798 11.0466L16.2506 20.2199L6.22833 26.7763C6.16473 26.6355 6.1317 26.4827 6.1317 26.3283L6.13167 26.3282ZM17.3416 20.859H21.635L31.671 27.4249H7.30547L17.3416 20.859ZM22.704 20.2047L32.7854 10.8765C32.8244 10.9898 32.8443 11.1086 32.8445 11.2283V26.328C32.8445 26.4825 32.8114 26.6352 32.7478 26.7761L22.704 20.2047ZM31.7484 10.1317C31.8025 10.1323 31.8563 10.1367 31.9098 10.1451L21.5551 19.7271H17.3914L6.88603 10.1874C6.99671 10.1507 7.11232 10.1317 7.22878 10.1317L31.7484 10.1317Z" fill="white"/>
</svg>
