<svg width="158" height="47" viewBox="0 0 158 47" fill="none" xmlns="http://www.w3.org/2000/svg">
<rect width="158" height="35" rx="7" fill="#00BFF3"/>
<path d="M35.6097 25.0154L49.0889 34.4526L34.1765 41.4074L35.6097 25.0154Z" fill="#00BFF3"/>
<path d="M19.9817 9H22.5817V23H19.9817V9ZM12.7417 23H10.1417V9H12.7417V23ZM20.1817 17H12.5217V14.78H20.1817V17ZM26.0931 23V12.32H28.5931V23H26.0931ZM27.3531 10.56C26.8865 10.56 26.4998 10.4133 26.1931 10.12C25.8998 9.82667 25.7531 9.47333 25.7531 9.06C25.7531 8.63333 25.8998 8.28 26.1931 8C26.4998 7.70667 26.8865 7.56 27.3531 7.56C27.8198 7.56 28.1998 7.7 28.4931 7.98C28.7998 8.24667 28.9531 8.58667 28.9531 9C28.9531 9.44 28.8065 9.81333 28.5131 10.12C28.2198 10.4133 27.8331 10.56 27.3531 10.56ZM31.8744 23V12.32H34.2544V15.26L33.9744 14.4C34.2944 13.68 34.7944 13.1333 35.4744 12.76C36.1677 12.3867 37.0277 12.2 38.0544 12.2V14.58C37.9477 14.5533 37.8477 14.54 37.7544 14.54C37.661 14.5267 37.5677 14.52 37.4744 14.52C36.5277 14.52 35.7744 14.8 35.2144 15.36C34.6544 15.9067 34.3744 16.7267 34.3744 17.82V23H31.8744ZM45.0975 23.14C43.9108 23.14 42.8708 22.9067 41.9775 22.44C41.0975 21.96 40.4108 21.3067 39.9175 20.48C39.4375 19.6533 39.1975 18.7133 39.1975 17.66C39.1975 16.5933 39.4308 15.6533 39.8975 14.84C40.3775 14.0133 41.0308 13.3667 41.8575 12.9C42.6975 12.4333 43.6508 12.2 44.7175 12.2C45.7575 12.2 46.6842 12.4267 47.4975 12.88C48.3108 13.3333 48.9508 13.9733 49.4175 14.8C49.8842 15.6267 50.1175 16.6 50.1175 17.72C50.1175 17.8267 50.1108 17.9467 50.0975 18.08C50.0975 18.2133 50.0908 18.34 50.0775 18.46H41.1775V16.8H48.7575L47.7775 17.32C47.7908 16.7067 47.6642 16.1667 47.3975 15.7C47.1308 15.2333 46.7642 14.8667 46.2975 14.6C45.8442 14.3333 45.3175 14.2 44.7175 14.2C44.1042 14.2 43.5642 14.3333 43.0975 14.6C42.6442 14.8667 42.2842 15.24 42.0175 15.72C41.7642 16.1867 41.6375 16.74 41.6375 17.38V17.78C41.6375 18.42 41.7842 18.9867 42.0775 19.48C42.3708 19.9733 42.7842 20.3533 43.3175 20.62C43.8508 20.8867 44.4642 21.02 45.1575 21.02C45.7575 21.02 46.2975 20.9267 46.7775 20.74C47.2575 20.5533 47.6842 20.26 48.0575 19.86L49.3975 21.4C48.9175 21.96 48.3108 22.3933 47.5775 22.7C46.8575 22.9933 46.0308 23.14 45.0975 23.14ZM58.2863 23V9H60.4263L66.5463 19.22H65.4263L71.4463 9H73.5863L73.6063 23H71.1463L71.1263 12.86H71.6463L66.5263 21.4H65.3663L60.1663 12.86H60.7663V23H58.2863ZM82.1678 23.14C80.9811 23.14 79.9411 22.9067 79.0478 22.44C78.1678 21.96 77.4811 21.3067 76.9878 20.48C76.5078 19.6533 76.2678 18.7133 76.2678 17.66C76.2678 16.5933 76.5011 15.6533 76.9678 14.84C77.4478 14.0133 78.1011 13.3667 78.9278 12.9C79.7678 12.4333 80.7211 12.2 81.7878 12.2C82.8278 12.2 83.7545 12.4267 84.5678 12.88C85.3811 13.3333 86.0211 13.9733 86.4878 14.8C86.9545 15.6267 87.1878 16.6 87.1878 17.72C87.1878 17.8267 87.1811 17.9467 87.1678 18.08C87.1678 18.2133 87.1611 18.34 87.1478 18.46H78.2478V16.8H85.8278L84.8478 17.32C84.8611 16.7067 84.7345 16.1667 84.4678 15.7C84.2011 15.2333 83.8345 14.8667 83.3678 14.6C82.9145 14.3333 82.3878 14.2 81.7878 14.2C81.1745 14.2 80.6345 14.3333 80.1678 14.6C79.7145 14.8667 79.3545 15.24 79.0878 15.72C78.8345 16.1867 78.7078 16.74 78.7078 17.38V17.78C78.7078 18.42 78.8545 18.9867 79.1478 19.48C79.4411 19.9733 79.8545 20.3533 80.3878 20.62C80.9211 20.8867 81.5345 21.02 82.2278 21.02C82.8278 21.02 83.3678 20.9267 83.8478 20.74C84.3278 20.5533 84.7545 20.26 85.1278 19.86L86.4678 21.4C85.9878 21.96 85.3811 22.3933 84.6478 22.7C83.9278 22.9933 83.1011 23.14 82.1678 23.14ZM95.3566 23V9H97.4966L106.277 19.78H105.217V9H107.797V23H105.657L96.8766 12.22H97.9366V23H95.3566ZM116.108 23.14C115.015 23.14 114.041 22.9067 113.188 22.44C112.335 21.96 111.661 21.3067 111.168 20.48C110.675 19.6533 110.428 18.7133 110.428 17.66C110.428 16.5933 110.675 15.6533 111.168 14.84C111.661 14.0133 112.335 13.3667 113.188 12.9C114.041 12.4333 115.015 12.2 116.108 12.2C117.215 12.2 118.195 12.4333 119.048 12.9C119.915 13.3667 120.588 14.0067 121.068 14.82C121.561 15.6333 121.808 16.58 121.808 17.66C121.808 18.7133 121.561 19.6533 121.068 20.48C120.588 21.3067 119.915 21.96 119.048 22.44C118.195 22.9067 117.215 23.14 116.108 23.14ZM116.108 21C116.721 21 117.268 20.8667 117.748 20.6C118.228 20.3333 118.601 19.9467 118.868 19.44C119.148 18.9333 119.288 18.34 119.288 17.66C119.288 16.9667 119.148 16.3733 118.868 15.88C118.601 15.3733 118.228 14.9867 117.748 14.72C117.268 14.4533 116.728 14.32 116.128 14.32C115.515 14.32 114.968 14.4533 114.488 14.72C114.021 14.9867 113.648 15.3733 113.368 15.88C113.088 16.3733 112.948 16.9667 112.948 17.66C112.948 18.34 113.088 18.9333 113.368 19.44C113.648 19.9467 114.021 20.3333 114.488 20.6C114.968 20.8667 115.508 21 116.108 21ZM126.266 23L122.346 12.32H124.706L128.066 21.74H126.946L130.466 12.32H132.566L135.986 21.74H134.886L138.346 12.32H140.566L136.626 23H134.226L131.106 14.66H131.846L128.666 23H126.266ZM147.972 18.36L147.492 9H150.452L149.952 18.36H147.972ZM148.972 23.14C148.505 23.14 148.119 22.9867 147.812 22.68C147.505 22.3733 147.352 22.0067 147.352 21.58C147.352 21.1533 147.505 20.7933 147.812 20.5C148.119 20.1933 148.505 20.04 148.972 20.04C149.439 20.04 149.819 20.1933 150.112 20.5C150.405 20.7933 150.552 21.1533 150.552 21.58C150.552 22.0067 150.405 22.3733 150.112 22.68C149.819 22.9867 149.439 23.14 148.972 23.14Z" fill="white"/>
</svg>
