<svg width="140" height="126" viewBox="0 0 140 126" fill="none" xmlns="http://www.w3.org/2000/svg">
<rect x="0.811523" width="139.189" height="125.6" rx="11" fill="#26272D"/>
<path d="M92.5827 61.232C92.3455 61.1204 92.0783 61.0646 91.8085 61.0705C91.5386 61.0762 91.2749 61.1436 91.0446 61.2653L84.892 64.5906C84.5453 64.7777 84.2987 65.0761 84.2064 65.4202C84.114 65.7646 84.1837 66.1262 84.3997 66.4261C84.616 66.7259 84.961 66.9394 85.3593 67.0193C85.7572 67.0989 86.1758 67.0389 86.5225 66.8518L90.2754 64.7967V72.8771L82.5848 69.5517V61.0654C82.5803 60.1896 82.2428 59.3395 81.6244 58.6459C81.0058 57.9524 80.1409 57.4541 79.1624 57.2279C79.3876 56.5284 79.504 55.8061 79.5085 55.0798C79.5081 52.6743 78.2529 50.397 76.0923 48.8819C73.9314 47.3667 71.0957 46.7753 68.3739 47.272C65.652 47.7687 63.3344 49.3008 62.0661 51.4418C60.5071 50.5946 58.6482 50.2595 56.8275 50.497C55.0068 50.7345 53.3451 51.529 52.1444 52.7359C50.9435 53.9432 50.2836 55.4826 50.2839 57.0749V57.3012C49.3837 57.5761 48.6047 58.0862 48.0536 58.7602C47.5029 59.4344 47.2073 60.2396 47.2076 61.0653V75.0318C47.2076 76.0903 47.6938 77.105 48.559 77.8536C49.4246 78.6018 50.598 79.0222 51.822 79.0222H77.9703C79.1943 79.0222 80.3678 78.6018 81.2334 77.8536C82.0986 77.1051 82.5847 76.0903 82.5847 75.0318V72.5313L91.1289 76.2224C91.6051 76.4263 92.1689 76.4038 92.6211 76.1624C93.0746 75.9204 93.351 75.4926 93.3517 75.0318V62.3955C93.3541 62.16 93.2841 61.9281 93.1491 61.7236C93.0139 61.519 92.8185 61.3495 92.5826 61.2316L92.5827 61.232ZM57.9747 53.0847C59.3644 53.08 60.6812 53.6236 61.5509 54.5613L61.6048 54.6011C61.6391 54.6376 61.6779 54.6711 61.7201 54.7008L61.828 54.7807L61.9509 54.8537L62.0817 54.9202L62.22 54.9668L62.3739 55.0066H63.1041L63.2579 54.9668L63.3887 54.9202L63.5271 54.8603L63.65 54.7872L63.7194 54.754L63.7654 54.7073L63.8807 54.6141L63.9731 54.5144L64.0576 54.4081L64.1345 54.2884L64.1884 54.1821L64.2344 54.0426V53.9894L64.2351 53.9891C64.554 52.6712 65.4395 51.507 66.7122 50.7312C67.9849 49.9554 69.5506 49.6258 71.0936 49.809C72.6362 49.9919 74.0411 50.6742 75.0254 51.7178C76.0093 52.7614 76.499 54.0889 76.396 55.4327C76.2926 56.7762 75.6043 58.0363 74.4692 58.9582C73.3341 59.8801 71.8369 60.3955 70.2798 60.4006C68.2309 60.4065 66.3154 59.522 65.181 58.0461L65.1425 58.0128C65.0941 57.9377 65.0347 57.8685 64.9657 57.8068L64.8963 57.7403C64.817 57.6675 64.7264 57.6049 64.6272 57.5541C64.5266 57.5039 64.4212 57.4618 64.312 57.4276H64.2426C64.1204 57.3958 63.9934 57.3804 63.8657 57.381H63.8197C63.7328 57.3742 63.6452 57.3742 63.558 57.381H63.512L63.2738 57.4475H63.2274C63.1508 57.479 63.0763 57.5146 63.0046 57.5541C62.9345 57.5968 62.8676 57.6435 62.8044 57.6936C62.7491 57.7438 62.6976 57.7973 62.6506 57.8534C62.652 57.8688 62.652 57.8842 62.6506 57.9C62.6122 57.9531 62.5737 58.0063 62.5428 58.0597C62.5119 58.1129 62.5428 58.1197 62.5428 58.1461L62.5431 58.1458C62.5349 58.1699 62.5219 58.1924 62.5047 58.2123C62.1792 59.1579 61.4602 59.9655 60.4866 60.4798C59.5132 60.994 58.3537 61.1778 57.2325 60.9964C56.1111 60.8147 55.1076 60.2806 54.4151 59.4965C53.7226 58.7127 53.3902 57.7346 53.4826 56.7516C53.575 55.7682 54.0852 54.8494 54.9147 54.1723C55.7441 53.4951 56.8342 53.1076 57.9747 53.0847ZM79.5086 75.032C79.5086 75.3848 79.3465 75.7232 79.0581 75.9726C78.7697 76.222 78.3783 76.3622 77.9704 76.3622H51.8221C51.4143 76.3622 51.0229 76.222 50.7345 75.9726C50.4461 75.7232 50.284 75.3848 50.284 75.032V61.0656C50.2902 60.5956 50.5824 60.1633 51.0531 59.9284C52.2119 62.0222 54.5496 63.4423 57.2204 63.6745C59.8915 63.9069 62.5094 62.918 64.1272 61.0656C66.0835 62.5608 68.6809 63.2695 71.2751 63.0159C73.8697 62.7624 76.2184 61.5706 77.7397 59.7354H77.8705C78.2925 59.7212 78.7038 59.8539 79.0117 60.1039C79.3193 60.3539 79.4986 60.7004 79.5085 61.0655L79.5086 75.032ZM57.9747 73.7019C57.9747 74.0546 57.8126 74.3931 57.5242 74.6425C57.2358 74.8919 56.8444 75.032 56.4365 75.032H53.3603C52.8106 75.032 52.3028 74.7785 52.0282 74.367C51.7535 73.9554 51.7535 73.4483 52.0282 73.0368C52.3028 72.6253 52.8106 72.3718 53.3603 72.3718H56.4365C56.8444 72.3718 57.2358 72.5119 57.5242 72.7613C57.8126 73.0107 57.9747 73.3492 57.9747 73.7019Z" fill="white"/>
</svg>
