<svg width="138" height="144" viewBox="0 0 138 144" fill="none" xmlns="http://www.w3.org/2000/svg">
<rect width="138" height="144" rx="11" fill="#26272D"/>
<g filter="url(#filter0_d_94_3)">
<path d="M71.1529 64.1071C71.1529 65.16 70.2995 66.0134 69.2466 66.0134C68.1938 66.0134 67.3404 65.16 67.3404 64.1071C67.3404 63.0543 68.1938 62.2009 69.2466 62.2009C70.2995 62.2009 71.1529 63.0543 71.1529 64.1071Z" fill="white"/>
<path d="M67.6767 71.909C67.7424 72.0346 67.8725 72.1133 68.0144 72.1133H82.9708C83.113 72.1133 83.2434 72.0343 83.3088 71.908C83.3745 71.7821 83.3646 71.6299 83.2832 71.5135L77.9457 63.8885C77.8743 63.7864 77.7575 63.7258 77.6333 63.7258C77.509 63.7258 77.3923 63.7864 77.3208 63.8885L74.3913 68.074L72.5507 65.4148C72.4796 65.3116 72.3622 65.2504 72.2372 65.2504C72.112 65.2504 71.9949 65.3116 71.9237 65.4148L67.7007 71.5148C67.6197 71.6312 67.6105 71.7834 67.6765 71.909L67.6767 71.909ZM72.2375 66.3019L75.733 71.3508H68.7418L72.2375 66.3019Z" fill="white"/>
<path d="M90.2145 61.4379H84.877V50.3813C84.877 50.2801 84.8368 50.1831 84.7654 50.1116C84.6939 50.0402 84.5969 50 84.4958 50H66.1957C65.985 50 65.8145 50.1705 65.8145 50.3813V60.6746H60.8736V59.8797C61.4063 59.7888 61.8897 59.5128 62.2386 59.1002C62.5872 58.6876 62.7791 58.1648 62.7798 57.6245V54.1092C63.2149 53.9815 63.5971 53.7167 63.8695 53.3538C64.1414 52.991 64.2888 52.5498 64.2895 52.0964V50.762C64.2895 50.6609 64.2493 50.5639 64.1779 50.4924C64.1064 50.4209 64.0094 50.3808 63.9083 50.3808H58.5861C57.9795 50.3808 57.3974 50.6218 56.9686 51.0507C56.5397 51.4796 56.2986 52.0617 56.2986 52.6682V56.478C56.2993 57.023 56.5897 57.5268 57.0611 57.8005V60.6745H50.249C49.1417 60.6769 48.0796 61.1163 47.2943 61.8975C46.5094 62.6784 46.0638 63.7377 46.0553 64.8454L46.0001 75.0673C45.9916 76.5126 46.4362 77.9242 47.2715 79.1037C48.1072 80.2832 49.2912 81.1714 50.6575 81.6428H50.5645V94.9861H58.952V87.7587C58.9486 87.5582 59.0971 87.3876 59.2958 87.3628C59.4031 87.3522 59.5096 87.3876 59.5893 87.4598C59.6689 87.532 59.7145 87.6348 59.7145 87.7423V94.9861H68.102V81.6428H68.0997L68.1003 74.8415H68.1007C68.5817 75.0529 69.1014 75.1618 69.6271 75.1615H73.4396V87.7432C73.4396 87.8443 73.4797 87.9413 73.5512 88.0128C73.6227 88.0843 73.7197 88.1244 73.8208 88.1244H92.1208C92.2219 88.1244 92.3189 88.0843 92.3904 88.0128C92.4619 87.9413 92.5021 87.8443 92.5021 87.7432V63.7249C92.5021 63.1183 92.2611 62.5362 91.8322 62.1073C91.4033 61.6785 90.8211 61.4374 90.2146 61.4374L90.2145 61.4379ZM74.5828 51.9063C74.8912 51.9063 75.1693 52.0921 75.2871 52.377C75.4052 52.6619 75.3402 52.9897 75.122 53.2079C74.9038 53.4262 74.576 53.4912 74.2911 53.373C74.0062 53.2553 73.8203 52.9771 73.8203 52.6688C73.8203 52.2477 74.1617 51.9063 74.5828 51.9063ZM71.5328 51.9063C71.8412 51.9063 72.1193 52.0921 72.2371 52.377C72.3552 52.6619 72.2902 52.9897 72.072 53.2079C71.8538 53.4262 71.526 53.4912 71.2411 53.373C70.9562 53.2553 70.7703 52.9771 70.7703 52.6688C70.7703 52.2477 71.1117 51.9063 71.5328 51.9063ZM68.4828 51.9063C68.7912 51.9063 69.0693 52.0921 69.1871 52.377C69.3052 52.6619 69.2402 52.9897 69.022 53.2079C68.8038 53.4262 68.476 53.4912 68.1911 53.373C67.9062 53.2553 67.7203 52.9771 67.7203 52.6688C67.7203 52.2477 68.0617 51.9063 68.4828 51.9063ZM66.5766 55.3375H84.1141V60.675H66.5766V55.3375ZM66.5766 61.4375H84.1141V72.875H66.987C66.7178 72.4117 66.5761 71.8858 66.5765 71.35L66.5766 61.4375ZM57.5703 55.7568C57.8406 55.6619 58.1412 55.7252 58.3502 55.9216C58.5027 56.0663 58.7437 56.0598 58.8887 55.9076C59.3364 55.4382 59.622 54.8374 59.7033 54.1937H62.0167V57.625C62.0164 58.0293 61.8553 58.4167 61.5694 58.7026C61.2835 58.9886 60.8961 59.1496 60.4917 59.1499C60.1442 59.1506 59.7997 59.0829 59.478 58.9508C59.2833 58.8708 59.0603 58.9637 58.9803 59.1584C58.9003 59.3531 58.9932 59.5761 59.188 59.6561C59.4831 59.7773 59.7935 59.8563 60.1108 59.891V61.8187C60.1108 62.4505 59.5985 62.9624 58.967 62.9624C58.3353 62.9624 57.8233 62.4505 57.8233 61.8187V57.5592C57.8233 57.3979 57.7219 57.2539 57.57 57.1997C57.2644 57.0912 57.0605 56.8022 57.0605 56.4781C57.0605 56.154 57.2644 55.865 57.57 55.7565L57.5703 55.7568ZM65.7972 80.8836C65.7958 81.0933 65.6256 81.2628 65.4159 81.2628H52.9196C51.2809 81.2628 49.7096 80.6096 48.5539 79.4478C47.3982 78.2857 46.7536 76.7113 46.7624 75.0726L46.7825 71.3503H52.1142L52.0894 75.5421C52.0887 75.6435 52.1288 75.7409 52.2003 75.813C52.2718 75.8848 52.3692 75.9254 52.4706 75.9254H61.6206C61.7847 75.9254 61.9304 75.8205 61.9824 75.6646L62.6578 73.6378H62.7289C62.8797 73.6378 63.021 73.71 63.1092 73.8322C63.1973 73.9544 63.2212 74.1113 63.1739 74.254L62.7841 75.4233L62.7838 75.4236C62.7453 75.5397 62.7647 75.6677 62.8362 75.7671C62.908 75.8665 63.023 75.9253 63.1456 75.9253H65.4331C65.5345 75.9253 65.6315 75.9659 65.7034 76.0377C65.7749 76.1095 65.8147 76.2069 65.8143 76.308L65.7972 80.8836ZM67.3371 81.2628H66.4929C66.5365 81.142 66.559 81.0143 66.5597 80.886L66.5767 76.311H66.577C66.5781 76.0067 66.4582 75.7146 66.2434 75.4991C66.0286 75.2837 65.7369 75.1628 65.4329 75.1628H63.6744L63.897 74.4949C64.0219 74.1195 63.959 73.7069 63.7275 73.3862C63.496 73.0652 63.1246 72.8753 62.7288 72.8753H62.3829C62.2188 72.8753 62.0731 72.9801 62.0211 73.136L61.3457 75.1628H52.8537L52.9058 66.3962H52.9061C52.9072 66.1859 52.7376 66.0143 52.5269 66.0129H52.5249C52.3152 66.0129 52.1447 66.1825 52.1436 66.3921L52.1188 70.5879H46.7864L46.8174 64.8501C46.8246 63.944 47.1888 63.0772 47.8315 62.4383C48.4738 61.7994 49.3425 61.4399 50.2487 61.4379H57.0608V61.8192C57.0608 62.5003 57.424 63.1293 58.014 63.4701C58.6035 63.8105 59.3303 63.8105 59.9202 63.4701C60.5098 63.1293 60.8734 62.5003 60.8734 61.8192V61.4379H65.8143V71.3504C65.8143 72.549 66.3787 73.6777 67.3379 74.397L67.3371 81.2628ZM69.6267 74.4003C68.8846 74.4007 68.1681 74.1294 67.6125 73.6378H84.2455C84.3456 73.919 84.4994 74.178 84.6989 74.4003H69.6267ZM91.7392 87.3628H74.2017V75.1628H86.4017C87.0082 75.1621 87.5897 74.9208 88.0182 74.4919C88.4471 74.0633 88.6885 73.4819 88.6892 72.8753V63.7253C88.6892 63.1803 88.9799 62.6769 89.4517 62.4046C89.9235 62.1322 90.5049 62.1322 90.9767 62.4046C91.4485 62.6769 91.7392 63.1803 91.7392 63.7253L91.7392 87.3628Z" fill="white"/>
<path d="M67.7212 56.1009H70.7712C70.9819 56.1009 71.1524 56.3116 71.1524 56.4821V59.5321C71.1524 59.7428 70.9819 59.9134 70.7712 59.9134H67.7212C67.5105 59.9134 67.3399 59.7027 67.3399 59.5321V56.4821C67.3399 56.2714 67.5105 56.1009 67.7212 56.1009Z" fill="white"/>
<path d="M72.2962 56.8629H76.8712C77.0819 56.8629 77.2524 56.6924 77.2524 56.4817C77.2524 56.271 77.0819 56.1004 76.8712 56.1004H72.2962C72.0855 56.1004 71.9149 56.271 71.9149 56.4817C71.9149 56.6924 72.0855 56.8629 72.2962 56.8629Z" fill="white"/>
<path d="M72.2962 58.3879H75.3462C75.5569 58.3879 75.7274 58.2174 75.7274 58.0067C75.7274 57.796 75.5569 57.6254 75.3462 57.6254H72.2962C72.0855 57.6254 71.9149 57.796 71.9149 58.0067C71.9149 58.2174 72.0855 58.3879 72.2962 58.3879Z" fill="white"/>
<path d="M79.1587 59.1513H72.2962C72.0855 59.1513 71.9149 59.3218 71.9149 59.5326C71.9149 59.7433 72.0855 59.9138 72.2962 59.9138H79.1587C79.3694 59.9138 79.5399 59.7433 79.5399 59.5326C79.5399 59.3218 79.3694 59.1513 79.1587 59.1513Z" fill="white"/>
<path d="M90.5962 75.9263H75.3462C75.1355 75.9263 74.9649 76.0968 74.9649 76.3076V84.6951C74.9649 84.7962 75.0051 84.8932 75.0766 84.9647C75.1481 85.0361 75.2451 85.0763 75.3462 85.0763H90.5962C90.6973 85.0763 90.7943 85.0361 90.8658 84.9647C90.9373 84.8932 90.9774 84.7962 90.9774 84.6951V76.3076C90.9774 76.2064 90.9373 76.1094 90.8658 76.0379C90.7943 75.9665 90.6973 75.9263 90.5962 75.9263ZM81.8279 82.1154V78.8871L84.5181 80.5012L81.8279 82.1154Z" fill="white"/>
</g>
<defs>
<filter id="filter0_d_94_3" x="35" y="41" width="69" height="69" filterUnits="userSpaceOnUse" color-interpolation-filters="sRGB">
<feFlood flood-opacity="0" result="BackgroundImageFix"/>
<feColorMatrix in="SourceAlpha" type="matrix" values="0 0 0 0 0 0 0 0 0 0 0 0 0 0 0 0 0 0 127 0" result="hardAlpha"/>
<feOffset dy="4"/>
<feGaussianBlur stdDeviation="2"/>
<feComposite in2="hardAlpha" operator="out"/>
<feColorMatrix type="matrix" values="0 0 0 0 0 0 0 0 0 0 0 0 0 0 0 0 0 0 0.25 0"/>
<feBlend mode="normal" in2="BackgroundImageFix" result="effect1_dropShadow_94_3"/>
<feBlend mode="normal" in="SourceGraphic" in2="effect1_dropShadow_94_3" result="shape"/>
</filter>
</defs>
</svg>
