<svg width="138" height="144" viewBox="0 0 138 144" fill="none" xmlns="http://www.w3.org/2000/svg">
<rect width="138" height="144" rx="11" fill="#26272D"/>
<path d="M89.0414 52H49.3182C47.5127 52 46 53.4641 46 55.3182V87.7702C46 89.5757 47.4641 91.0885 49.3182 91.0885H89.0902C90.8957 91.0885 92.4085 89.6244 92.4085 87.7702L92.4088 55.3182C92.3601 53.4641 90.8961 52 89.0419 52H89.0414ZM60.2494 54.7818C61.079 54.7818 61.7621 55.465 61.7621 56.2945C61.7621 57.124 61.079 57.8072 60.2494 57.8072C59.4199 57.8072 58.7367 57.124 58.7367 56.2945C58.7367 55.465 59.4199 54.7818 60.2494 54.7818ZM55.6135 54.7818C56.4431 54.7818 57.1262 55.465 57.1262 56.2945C57.1262 57.124 56.443 57.8072 55.6135 57.8072C54.784 57.8072 54.1008 57.124 54.1008 56.2945C54.1008 55.465 54.735 54.7818 55.6135 54.7818ZM50.9285 54.7818C51.7581 54.7818 52.4413 55.465 52.4413 56.2945C52.4413 57.124 51.7581 57.8072 50.9285 57.8072C50.099 57.8072 49.4158 57.124 49.4158 56.2945C49.4158 55.465 50.099 54.7818 50.9285 54.7818ZM89.5293 87.7218C89.5293 87.9658 89.3343 88.2099 89.0412 88.2099L49.318 88.2096C49.0739 88.2096 48.8299 88.0145 48.8299 87.7214L48.8302 61.0278H89.5782L89.5779 87.7214L89.5293 87.7218Z" fill="white"/>
<path d="M70.4974 78.84H83.1366C84.1125 78.84 84.9421 78.0105 84.9421 77.0345V66.7377C84.9421 65.7618 84.1126 64.9322 83.1366 64.9322L70.4974 64.9318C69.5215 64.9318 68.6919 65.7614 68.6919 66.7374V77.0342C68.6916 78.0104 69.5215 78.84 70.4974 78.84ZM80.355 67.86C80.9895 67.86 81.4773 68.3481 81.4773 68.9823C81.4773 69.6168 80.9892 70.1046 80.355 70.1046C79.7205 70.1046 79.2327 69.6165 79.2327 68.9823C79.184 68.3482 79.7208 67.86 80.355 67.86ZM71.864 75.2287L75.1822 69.9583C75.2799 69.8119 75.524 69.7633 75.6213 69.9583L77.6709 72.691C77.7686 72.8374 77.9637 72.8374 78.1101 72.7397L78.9883 71.9102C79.1347 71.8125 79.3301 71.8125 79.4274 71.9588L81.7697 75.2284C81.9161 75.4235 81.7697 75.6676 81.5257 75.6676L72.1081 75.6682C71.9127 75.6682 71.7663 75.4241 71.864 75.2287Z" fill="white"/>
<path d="M54.6862 67.7624H64.6902C65.4711 67.7624 66.1053 67.1279 66.1053 66.3474C66.1053 65.5665 65.4707 64.9323 64.6902 64.9323L54.6862 64.932C53.9053 64.932 53.2712 65.5665 53.2712 66.347C53.2712 67.1283 53.9054 67.7624 54.6862 67.7624Z" fill="white"/>
<path d="M54.6862 73.2768H64.6902C65.4711 73.2768 66.1053 72.6423 66.1053 71.8618C66.1053 71.0809 65.4707 70.4468 64.6902 70.4468L54.6862 70.4464C53.9053 70.4464 53.2712 71.0809 53.2712 71.8614C53.2712 72.6423 53.9054 73.2768 54.6862 73.2768Z" fill="white"/>
<path d="M54.6862 78.84H64.6902C65.4711 78.84 66.1053 78.2055 66.1053 77.425C66.1053 76.6441 65.4707 76.01 64.6902 76.01L54.6862 76.0096C53.9053 76.0096 53.2712 76.6441 53.2712 77.4246C53.2712 78.2055 53.9054 78.84 54.6862 78.84Z" fill="white"/>
<path d="M54.6862 84.3544H83.6734C84.4543 84.3544 85.0885 83.7199 85.0885 82.9394C85.0885 82.1585 84.454 81.5243 83.6734 81.5243L54.6862 81.524C53.9053 81.524 53.2712 82.1585 53.2712 82.939C53.2712 83.7199 53.9054 84.3544 54.6862 84.3544Z" fill="white"/>
</svg>
