<svg width="140" height="126" viewBox="0 0 140 126" fill="none" xmlns="http://www.w3.org/2000/svg">
<rect width="139.189" height="125.6" rx="11" fill="#26272D"/>
<path d="M48.3671 75.2017H91.6274V51.0927H48.3671V75.2017ZM69.9968 54.4181C75.5626 54.4181 80.0905 58.334 80.0905 63.1468C80.0905 67.9596 75.5622 71.8756 69.9968 71.8756C64.4314 71.8756 59.9031 67.9596 59.9031 63.1468C59.9031 58.334 64.4314 54.4181 69.9968 54.4181ZM51.2509 54.0024C51.2509 53.7729 51.4662 53.5867 51.7316 53.5867H54.6155C54.8809 53.5867 55.0962 53.7729 55.0962 54.0024C55.0962 54.2319 54.8809 54.4181 54.6155 54.4181H52.2122V56.4964C52.2122 56.7259 51.9969 56.9121 51.7315 56.9121C51.4661 56.9121 51.2508 56.7259 51.2508 56.4964L51.2509 54.0024ZM51.2509 58.9904C51.2509 58.7609 51.4662 58.5747 51.7316 58.5747C51.997 58.5747 52.2122 58.7609 52.2122 58.9904V59.8218C52.2122 60.0513 51.997 60.2375 51.7316 60.2375C51.4662 60.2375 51.2509 60.0513 51.2509 59.8218V58.9904Z" fill="white"/>
<path d="M69.9968 71.0455C75.0325 71.0455 79.1298 67.5026 79.1298 63.1476C79.1298 58.7925 75.0328 55.2496 69.9968 55.2496C64.9608 55.2496 60.8638 58.7925 60.8638 63.1476C60.8638 67.5026 64.9608 71.0455 69.9968 71.0455ZM67.5934 59.8222C67.5934 59.669 67.691 59.528 67.8472 59.4558C68.0034 59.3834 68.1932 59.3914 68.3405 59.4763L74.1085 62.8017C74.2421 62.8789 74.3228 63.0086 74.3228 63.1476C74.3228 63.2865 74.2424 63.4163 74.1085 63.4935L68.3405 66.8188C68.2602 66.8651 68.1672 66.8886 68.0738 66.8886C67.9958 66.8886 67.9179 66.8723 67.8468 66.8393C67.6906 66.7668 67.5931 66.6261 67.5931 66.4729L67.5934 59.8222Z" fill="white"/>
<path d="M68.5545 60.599V65.6962L72.9752 63.1476L68.5545 60.599Z" fill="white"/>
<path d="M47.8864 44.4425H53.1737V50.2618H57.9804V44.4425H58.9418V50.2618H63.7485V44.4425H64.7099V50.2618H69.5166V44.4425H70.478V50.2618H75.2847V44.4425H76.2461V50.2618H81.0528V44.4425H82.0142V50.2618H86.8209V44.4425H92.1082C92.3736 44.4425 92.5889 44.2563 92.5889 44.0268C92.5889 43.7973 92.3736 43.6111 92.1082 43.6111H47.8873C47.6219 43.6111 47.4066 43.7973 47.4066 44.0268C47.4066 44.2563 47.6219 44.4425 47.8873 44.4425H47.8864Z" fill="white"/>
<path d="M92.1073 81.8523H86.8199V76.033H82.0132V81.8523H81.0519V76.033H76.2451V81.8523H75.2838V76.033H70.4771V81.8523H69.5157V76.033H64.709V81.8523H63.7476V76.033H58.9409V81.8523H57.9795V76.033H53.1728V81.8523H47.8855C47.6201 81.8523 47.4048 82.0385 47.4048 82.268C47.4048 82.4975 47.6201 82.6837 47.8855 82.6837H92.1064C92.3718 82.6837 92.5871 82.4975 92.5871 82.268C92.5871 82.0385 92.3718 81.8523 92.1064 81.8523H92.1073Z" fill="white"/>
</svg>
