<svg width="138" height="144" viewBox="0 0 138 144" fill="none" xmlns="http://www.w3.org/2000/svg">
<rect width="138" height="144" rx="11" fill="#26272D"/>
<path fill-rule="evenodd" clip-rule="evenodd" d="M43 51.5496V82.8652C43 83.4422 43.467 83.9092 44.044 83.9092H68.0536V89.2883L65.9655 89.29C65.6068 89.29 65.2582 89.4762 65.0652 89.8094L61.9332 95.2344C61.6455 95.7317 61.8147 96.368 62.312 96.6576C62.8094 96.9453 63.4473 96.7761 63.7353 96.2788L66.566 91.375H68.0532V95.7559C68.0532 96.3329 68.5219 96.7999 69.0972 96.7999C69.6742 96.7999 70.1411 96.3328 70.1411 95.7559V91.375H71.6317L74.4591 96.2737C74.745 96.771 75.3812 96.9419 75.8789 96.6577C76.3762 96.3717 76.5471 95.7355 76.2612 95.2379L73.1799 89.8993C73.0158 89.5388 72.6519 89.2886 72.2288 89.2886H70.1408V83.9096H94.1504C94.7273 83.9096 95.1943 83.4425 95.1943 82.8656V51.5499C95.1943 50.973 94.7273 50.506 94.1504 50.506H70.1408V49.044C70.1408 48.467 69.6737 48 69.0968 48C68.5215 48 68.0528 48.467 68.0528 49.044V50.506H44.0432C43.4662 50.506 43 50.9726 43 51.5496ZM82.7729 75.5592H63.5657C62.9887 75.5592 62.5217 75.0921 62.5217 74.5152C62.5217 73.9399 62.9888 73.4712 63.5657 73.4712H82.7729C83.3499 73.4712 83.8168 73.94 83.8168 74.5152C83.8168 75.0922 83.3498 75.5592 82.7729 75.5592ZM82.7729 68.2511H63.5657C62.9887 68.2511 62.5217 67.7841 62.5217 67.2071C62.5217 66.6319 62.9888 66.1632 63.5657 66.1632H82.7729C83.3499 66.1632 83.8168 66.6319 83.8168 67.2071C83.8168 67.7841 83.3498 68.2511 82.7729 68.2511ZM63.5657 60.9447C62.9887 60.9447 62.5217 60.476 62.5217 59.9007C62.5217 59.3238 62.9888 58.8568 63.5657 58.8568H82.7729C83.3499 58.8568 83.8168 59.3238 83.8168 59.9007C83.8168 60.476 83.3498 60.9447 82.7729 60.9447H63.5657ZM57.3016 58.4387V61.361H54.3775V58.4387H57.3016ZM57.3016 65.7467V68.6691H54.3775V65.7467H57.3016ZM57.3016 73.0548V75.9771H54.3775V73.0548H57.3016Z" fill="white"/>
</svg>
