<svg width="138" height="144" viewBox="0 0 138 144" fill="none" xmlns="http://www.w3.org/2000/svg">
<rect width="138" height="144" rx="11" fill="#26272D"/>
<path d="M73.8006 57.5858C73.8006 59.9321 71.8988 61.8338 69.5526 61.8338C67.2064 61.8338 65.3046 59.9321 65.3046 57.5858C65.3046 55.2396 67.2064 53.3378 69.5526 53.3378C71.8988 53.3378 73.8006 55.2396 73.8006 57.5858Z" fill="white"/>
<path d="M62.4178 65.0805H76.6913C78.4613 65.0805 79.9014 63.6404 79.9014 61.8767L79.9019 53.2965C79.9019 51.5324 78.4618 50.0864 76.6918 50.0864H73.5415V48.8086C73.5415 48.1004 72.9594 47.5246 72.2516 47.5246H66.8519C66.1437 47.5246 65.5679 48.1005 65.5679 48.8086V50.0868L63.9779 50.0864V48.7726C63.9779 48.4185 63.6899 48.1306 63.3358 48.1306H61.7638C61.4098 48.1306 61.1277 48.4185 61.1277 48.7726V50.3027C61.1277 50.3207 61.1335 50.3328 61.1398 50.3508C60.0056 50.8543 59.2016 51.9823 59.2016 53.2964V61.8825C59.2016 63.6403 60.6476 65.0805 62.4176 65.0805L62.4178 65.0805ZM69.552 52.0541C72.606 52.0541 75.0778 54.5381 75.0778 57.5862C75.0778 60.6343 72.606 63.1119 69.552 63.1119C66.5039 63.1119 64.0199 60.6279 64.0199 57.5862C64.0199 54.5322 66.5039 52.0541 69.552 52.0541Z" fill="white"/>
<path d="M73.9442 71.7705V69.3104H77.31C80.7302 69.3104 83.5138 66.5322 83.5138 63.1066L83.5142 58.1567C83.5142 57.5867 83.0463 57.1246 82.4762 57.1246C81.9062 57.1246 81.4383 57.5867 81.4383 58.1567V63.1129C81.4383 65.393 79.5842 67.2471 77.3104 67.2471L72.9121 67.2467H61.8003C59.5202 67.2467 57.6602 65.3926 57.6602 63.1125V58.1567C57.6602 57.5867 57.204 57.1246 56.6281 57.1246C56.0581 57.1246 55.5901 57.5867 55.5901 58.1567V63.1129C55.5901 66.5331 58.38 69.3167 61.8003 69.3167H65.5503V71.7768C65.5503 72.3527 66.0123 72.8089 66.5823 72.8089H67.8966L57.4082 94.1989C57.1563 94.7149 57.3664 95.3331 57.8761 95.5788C58.0264 95.6512 58.1821 95.6872 58.3323 95.6872C58.7103 95.6872 59.0823 95.4771 59.2623 95.1113L68.7064 75.8331V91.1631C68.7064 91.739 69.1685 92.1952 69.7502 92.1952C70.3203 92.1952 70.7823 91.739 70.7823 91.1631V75.7731L80.2623 95.1113C80.4301 95.4771 80.8085 95.6872 81.1864 95.6872C81.3362 95.6872 81.4982 95.6512 81.6363 95.5792C82.1524 95.3331 82.3625 94.7091 82.1105 94.1993L71.6281 72.8093H72.9121C73.488 72.8093 73.9442 72.3473 73.9442 71.771L73.9442 71.7705ZM71.88 70.7388H67.614V69.3167H71.88V70.7388Z" fill="white"/>
</svg>
