<svg width="141" height="126" viewBox="0 0 141 126" fill="none" xmlns="http://www.w3.org/2000/svg">
<rect x="0.918671" width="139.189" height="125.6" rx="11" fill="#26272D"/>
<path d="M50.1678 67.1594L54.0054 72.1376L60.9287 63.6294L50.1678 67.1594Z" fill="white"/>
<path d="M64.1147 61.4915L75.0801 57.8947L75.311 54.2033L70.9124 53.1382L64.1147 61.4915Z" fill="white"/>
<path d="M55.1312 72.531H74.1648L75.0099 59.0113L62.9001 62.9834L55.1312 72.531Z" fill="white"/>
<path d="M73.5488 82.3968L74.1018 73.5531H56.1629L73.5488 82.3968Z" fill="white"/>
<path d="M69.7049 52.8462L54.4353 49.1487L50.0801 66.0953L62.1435 62.1382L69.7049 52.8462Z" fill="white"/>
<path d="M63.449 44.933C64.4267 44.933 65.2219 44.2453 65.2219 43.3998C65.2219 42.5544 64.4266 41.8667 63.449 41.8667C62.4714 41.8667 61.6761 42.5544 61.6761 43.3998C61.6761 44.2453 62.4714 44.933 63.449 44.933Z" fill="white"/>
<path d="M75.7491 47.1942L71.6337 52.2516L75.3763 53.158L75.7491 47.1942Z" fill="white"/>
<path d="M81.6527 55.7385L76.4773 54.4857L76.2886 57.4981L80.7239 56.0434L81.6527 55.7385Z" fill="white"/>
<path d="M83.2402 56.3105L76.2188 58.6136L75.3492 72.5306H92.067L83.2402 56.3105ZM79.2311 70.3358C79.121 70.4318 78.9698 70.4862 78.8141 70.4862C78.6591 70.4862 78.5068 70.4322 78.3957 70.3358C78.286 70.2405 78.2231 70.1099 78.2231 69.9752C78.2231 69.8412 78.2856 69.7094 78.3957 69.6134C78.5068 69.5185 78.6591 69.4641 78.8141 69.4641C78.9698 69.4641 79.1214 69.5181 79.2311 69.6134C79.3422 69.7094 79.4051 69.8412 79.4051 69.9752C79.4051 70.1091 79.3426 70.2409 79.2311 70.3358ZM79.2311 67.2695C79.121 67.3655 78.9698 67.4199 78.8141 67.4199C78.6579 67.4199 78.5068 67.3658 78.3957 67.2695C78.286 67.1742 78.2231 67.0435 78.2231 66.9088C78.2231 66.7737 78.2856 66.6419 78.3957 66.547C78.5068 66.4521 78.6583 66.3977 78.8141 66.3977C78.9698 66.3977 79.1214 66.4517 79.2311 66.547C79.3422 66.643 79.4051 66.7741 79.4051 66.9088C79.4051 67.0428 79.3426 67.1746 79.2311 67.2695ZM79.2311 64.2041C79.121 64.299 78.9698 64.3534 78.8141 64.3534C78.6579 64.3534 78.5068 64.2994 78.3957 64.2041C78.286 64.1081 78.2231 63.9771 78.2231 63.8424C78.2231 63.7073 78.2856 63.5755 78.3957 63.4806C78.5068 63.3857 78.6583 63.3313 78.8141 63.3313C78.9698 63.3313 79.1214 63.3853 79.2311 63.4806C79.3422 63.5766 79.4051 63.7077 79.4051 63.8424C79.4051 63.9763 79.3426 64.1081 79.2311 64.2041ZM82.7783 70.3358C82.6673 70.4318 82.5157 70.4862 82.3599 70.4862C82.2038 70.4862 82.0514 70.4322 81.9416 70.3358C81.8319 70.2416 81.769 70.1099 81.769 69.9752C81.769 69.8401 81.8314 69.7083 81.9416 69.6134C82.0526 69.5185 82.2042 69.4641 82.3599 69.4641C82.5149 69.4641 82.6673 69.5181 82.7783 69.6134C82.888 69.7094 82.9509 69.8404 82.9509 69.9752C82.9509 70.1099 82.8885 70.2409 82.7783 70.3358ZM85.9058 70.4862C85.7496 70.4862 85.5985 70.4322 85.4875 70.3369C85.3777 70.2416 85.3148 70.1099 85.3148 69.9752C85.3148 69.8401 85.3773 69.7083 85.4875 69.6134C85.5985 69.5185 85.75 69.4641 85.9058 69.4641C86.0607 69.4641 86.2131 69.5181 86.3229 69.6134C86.4339 69.7083 86.4968 69.8404 86.4968 69.9752C86.4968 70.1099 86.4343 70.2409 86.3229 70.3369C86.2131 70.4322 86.0607 70.4862 85.9058 70.4862Z" fill="white"/>
<path d="M91.8163 80.7081C90.8386 80.7081 90.0433 81.3959 90.0433 82.2413C90.0433 83.0867 90.8386 83.7745 91.8163 83.7745C92.7939 83.7745 93.5892 83.0867 93.5892 82.2413C93.5892 81.3959 92.7939 80.7081 91.8163 80.7081Z" fill="white"/>
<path d="M47.3148 81.2193H49.6788V83.2636H47.3148V81.2193Z" fill="white"/>
<path d="M50.8604 81.2193H53.2244V83.2636H50.8604V81.2193Z" fill="white"/>
<path d="M54.4061 81.2193H56.77V83.2636H54.4061V81.2193Z" fill="white"/>
<path d="M57.9528 81.2193H60.3167V83.2636H57.9528V81.2193Z" fill="white"/>
</svg>
