<svg width="138" height="144" viewBox="0 0 138 144" fill="none" xmlns="http://www.w3.org/2000/svg">
<rect width="138" height="144" rx="11" fill="#26272D"/>
<path d="M89.6819 55.0936H93.7998V53.0623H91.7135V49H89.6823V53.062H82.4001L80.9646 51.6265L80.3702 51.0315H77.4959L77.4956 49H75.4658V51.0312L63.2806 51.0316V49.0001H61.2477V51.0313H55.1552L53.124 51.0316V53.0621H49.0627V49.0002H47.0312V53.0621H45V55.0934H53.1237V59.1554H45V61.1866H47.0312V65.2486H45V67.2791H53.1237V71.3418L49.0627 71.3421H45V73.3726H47.0312V77.4353H45V79.4665H53.1237V83.5278H45V85.559H47.0312V89.6203H45V91.6515H53.1237V93.6827H54.1395V95.714H56.1723V93.6827H68.3575V95.714H70.3887V93.6827H82.5739V95.714H84.6051V93.6827H85.6209L87.6527 93.6831V91.6519H91.7137L93.8004 91.6515V89.6203H91.7141V85.559L93.8004 85.5594V83.5281H89.6829L87.6527 83.5278V79.4668H93.8004V77.4356H91.7141V73.3729H93.8004V71.3424H89.6829L87.6527 71.342V67.2793H93.8004V65.2488H91.7141V61.1868H93.8004V59.1556H87.6527V58.3141L87.057 57.7191L84.6057 55.2679V55.0936L89.6819 55.0936ZM80.5441 54.0778L84.6054 58.1398H80.5441V54.0778ZM49.0629 65.2487V61.1867H53.1242V65.2487H49.0629ZM49.0629 77.4356V73.3729H53.1242V77.4356H49.0629ZM49.0629 89.6208V85.5595H53.1242V89.6208H49.0629ZM55.1554 91.6523V53.0628H78.5132V60.1717H85.6214V91.6521L55.1554 91.6523ZM89.6823 85.5594V89.6207H87.6524V85.5594H89.6823ZM89.6823 73.3733V77.436H87.6524V73.3733H89.6823ZM89.6823 61.1873V65.2493H87.6524V61.1873H89.6823Z" fill="white"/>
<path d="M68.2709 69.3352L65.818 65.2487L59.7255 75.4043H81.052L72.9266 61.1869L68.2709 69.3352ZM63.3116 73.3727L65.818 69.196L67.1153 71.3576L65.9627 73.3724L63.3116 73.3727ZM68.3023 73.3727L72.9262 65.28L77.5502 73.3727H68.3023Z" fill="white"/>
<path d="M74.4493 83.5282H66.3253C65.764 83.5282 65.3095 83.9823 65.3095 84.5439C65.3095 85.1053 65.7636 85.5597 66.3253 85.5597H74.4493C75.0107 85.5597 75.4651 85.1056 75.4651 84.5439C75.4647 83.9823 75.0107 83.5282 74.4493 83.5282Z" fill="white"/>
<path d="M78.5119 79.4665H62.2624C61.7024 79.4665 61.2467 79.9206 61.2467 80.4822C61.2467 81.0422 61.7025 81.4979 62.2624 81.4979H78.5119C79.0719 81.4979 79.5277 81.0421 79.5277 80.4822C79.5273 79.9205 79.0719 79.4665 78.5119 79.4665Z" fill="white"/>
</svg>
