<svg width="135" height="144" viewBox="0 0 135 144" fill="none" xmlns="http://www.w3.org/2000/svg">
<rect width="134.905" height="144" rx="11" fill="#26272D"/>
<path d="M66.816 71.5002C68.1826 71.5002 69.3529 71.002 70.3269 70.0057C71.3009 69.0093 71.787 67.8131 71.7854 66.4168C71.7854 65.0189 71.2984 63.8218 70.3244 62.8255C69.3504 61.8291 68.1809 61.3318 66.816 61.3335C65.4495 61.3335 64.2792 61.8317 63.3052 62.828C62.3312 63.8243 61.845 65.0206 61.8467 66.4168C61.8467 67.8147 62.3337 69.0119 63.3077 70.0082C64.2817 71.0045 65.4511 71.5019 66.816 71.5002ZM66.816 96.9168C60.1488 91.1134 55.1696 85.7233 51.8782 80.7467C48.5868 75.7702 46.9403 71.163 46.9387 66.9252C46.9387 60.571 48.9372 55.5088 52.9342 51.7387C56.9312 47.9686 61.5585 46.0835 66.816 46.0835C72.0752 46.0835 76.7034 47.9686 80.7004 51.7387C84.6974 55.5088 86.695 60.571 86.6934 66.9252C86.6934 71.1613 85.0469 75.7685 81.7539 80.7467C78.4608 85.725 73.4816 91.1151 66.816 96.9168Z" fill="white"/>
</svg>
