<svg width="37" height="37" viewBox="0 0 37 37" fill="none" xmlns="http://www.w3.org/2000/svg">
<path d="M18.5 18.5C19.3479 18.5 20.074 18.1979 20.6784 17.5935C21.2827 16.9892 21.5844 16.2636 21.5833 15.4167C21.5833 14.5688 21.2812 13.8427 20.6768 13.2383C20.0725 12.634 19.3469 12.3323 18.5 12.3334C17.6521 12.3334 16.9259 12.6355 16.3216 13.2399C15.7173 13.8442 15.4156 14.5698 15.4167 15.4167C15.4167 16.2646 15.7188 16.9908 16.3232 17.5951C16.9275 18.1994 17.6531 18.5011 18.5 18.5ZM18.5 29.8313C21.6347 26.9535 23.9601 24.3388 25.476 21.9873C26.992 19.6357 27.75 17.5483 27.75 15.725C27.75 12.9243 26.8568 10.6314 25.0706 8.84612C23.2843 7.06087 21.0941 6.16774 18.5 6.16671C15.9049 6.16671 13.7141 7.05985 11.9279 8.84612C10.1416 10.6324 9.24896 12.9254 9.24999 15.725C9.24999 17.5493 10.008 19.6373 11.5239 21.9888C13.0399 24.3404 15.3653 26.9545 18.5 29.8313ZM18.5 33.9167C14.3632 30.3966 11.2737 27.1272 9.23149 24.1086C7.1893 21.09 6.16768 18.2955 6.16666 15.725C6.16666 11.8709 7.40667 8.80039 9.8867 6.51358C12.3667 4.22678 15.2378 3.08337 18.5 3.08337C21.7632 3.08337 24.6348 4.22678 27.1148 6.51358C29.5948 8.80039 30.8344 11.8709 30.8333 15.725C30.8333 18.2945 29.8117 21.089 27.7685 24.1086C25.7253 27.1282 22.6358 30.3976 18.5 33.9167Z" fill="white"/>
</svg>
