<svg width="37" height="37" viewBox="0 0 37 37" fill="none" xmlns="http://www.w3.org/2000/svg">
<path d="M30.1569 33.9558H5.17344C4.8404 33.9558 4.56907 33.6932 4.5567 33.3614C4.3779 28.3812 4.73675 25.0892 5.65555 23.3C5.72575 23.1668 5.84055 23.0619 5.98116 23.0076L12.4361 20.4953C12.6322 20.4177 12.8529 20.4472 13.0231 20.5717C13.1932 20.695 13.2882 20.8961 13.276 21.1057L13.271 21.3202C13.271 23.2639 14.7215 24.2494 17.5828 24.2494C20.4441 24.2494 21.8958 23.2639 21.8958 21.3202C21.8859 21.1129 21.9784 20.854 22.1475 20.7307C22.3164 20.6087 22.5361 20.5211 22.7271 20.5926L29.1059 23.0063C29.2465 23.0606 29.3636 23.163 29.4352 23.2974C30.8066 25.9181 30.851 29.5493 30.7746 33.3529C30.7662 33.687 30.4934 33.956 30.1568 33.956L30.1569 33.9558ZM5.77125 32.7223H29.5512C29.6055 29.4121 29.5154 26.2928 28.4449 24.0717L23.0772 22.0417C22.7442 24.2667 20.824 25.4803 17.5827 25.4803C14.3021 25.4803 12.3732 24.2359 12.0771 21.9579L6.65555 24.068C5.95129 25.6321 5.65518 28.539 5.77125 32.7223Z" fill="white"/>
<path d="M17.5425 21.6681C13.3431 21.6681 10.0537 17.4723 10.0537 12.1147C10.0537 7.5673 13.1099 4.51221 17.6562 4.51221C22.2737 4.51221 25.2586 7.49679 25.2586 12.1147C25.2574 17.7387 22.0851 21.6681 17.5425 21.6681ZM11.3302 13.1295C11.6953 17.2995 14.2915 20.4344 17.5415 20.4344C21.1157 20.4344 23.6808 17.4324 23.9922 13.027L22.0397 11.1646C18.5347 12.0747 14.4077 11.3903 13.1867 11.151L11.3302 13.1295ZM17.6546 5.74431C14.1113 5.74431 11.6495 7.95934 11.3228 11.335L12.5253 10.0549C12.6759 9.89319 12.8991 9.82423 13.1123 9.87482C13.1629 9.88597 18.2135 11.0081 22.0394 9.88473C22.2539 9.82175 22.4796 9.8773 22.64 10.0303L23.9917 11.3203C23.6919 7.8113 21.3722 5.74442 17.6547 5.74442L17.6546 5.74431Z" fill="white"/>
<path d="M15.2237 15.405C14.5935 15.405 14.0817 14.8919 14.0817 14.2617C14.0817 13.6316 14.5936 13.1198 15.2237 13.1198C15.8538 13.1198 16.367 13.6316 16.367 14.2617C16.367 14.8919 15.8526 15.405 15.2237 15.405ZM15.2237 13.983C15.0695 13.983 14.9437 14.1088 14.9437 14.263C14.9437 14.5713 15.5037 14.5713 15.5037 14.263C15.5037 14.1088 15.3777 13.983 15.2237 13.983Z" fill="white"/>
<path d="M20.1991 15.405C19.569 15.405 19.0572 14.8919 19.0572 14.2617C19.0572 13.6316 19.569 13.1198 20.1991 13.1198C20.8293 13.1195 21.3424 13.6326 21.3424 14.2628C21.3424 14.8932 20.8293 15.405 20.1991 15.405ZM20.1991 13.983C20.0449 13.983 19.9192 14.1088 19.9192 14.263C19.9192 14.5713 20.4791 14.5713 20.4791 14.263C20.4791 14.1088 20.3534 13.983 20.1991 13.983Z" fill="white"/>
<path d="M17.6546 19.1964C16.2807 19.1964 15.1621 18.2937 15.1621 17.1825C15.1621 16.9444 15.3545 16.7507 15.5938 16.7507H19.7156C19.9537 16.7507 20.1474 16.9432 20.1474 17.1825C20.1471 18.2923 19.0297 19.1964 17.6546 19.1964ZM16.15 17.614C16.3968 18.0321 16.9875 18.3342 17.6558 18.3342C18.3244 18.3342 18.9151 18.0321 19.1616 17.614H16.15Z" fill="white"/>
<path d="M26.5642 29.3096H23.2022C22.8617 29.3096 22.5855 29.0334 22.5855 28.6929C22.5855 28.3524 22.8617 28.0762 23.2022 28.0762H26.5642C26.9047 28.0762 27.1809 28.3524 27.1809 28.6929C27.1809 29.0334 26.9047 29.3096 26.5642 29.3096Z" fill="white"/>
</svg>
