<svg width="136" height="144" viewBox="0 0 136 144" fill="none" xmlns="http://www.w3.org/2000/svg">
<rect x="0.960938" width="134.905" height="144" rx="11" fill="#26272D"/>
<path d="M87.6934 71.5C87.0308 71.5 86.4403 71.256 85.9218 70.768C85.4033 70.28 85.1043 69.6768 85.0248 68.9583C84.4865 65.0188 82.8607 61.6612 80.1474 58.8857C77.4342 56.1102 74.1519 54.448 70.3007 53.899C69.5967 53.8142 69.0062 53.5177 68.5291 53.0094C68.052 52.501 67.8143 51.8868 67.816 51.1667C67.816 50.4465 68.0645 49.8425 68.5614 49.3545C69.0583 48.8665 69.6381 48.6657 70.3007 48.7521C75.5185 49.3451 79.9702 51.5267 83.6558 55.2969C87.3414 59.067 89.474 63.6208 90.0538 68.9583C90.1366 69.6361 89.9395 70.2292 89.4624 70.7375C88.9854 71.2458 88.3957 71.5 87.6934 71.5ZM77.3199 71.5C76.7815 71.5 76.3053 71.3094 75.8912 70.9281C75.4771 70.5469 75.1665 70.0385 74.9594 69.4031C74.6281 68.1747 73.9962 67.0834 73.0636 66.1295C72.131 65.1755 71.0651 64.5299 69.8659 64.1927C69.2447 63.9809 68.7478 63.6632 68.3751 63.2396C68.0024 62.816 67.816 62.3076 67.816 61.7146C67.816 60.8674 68.1059 60.1786 68.6856 59.6482C69.2654 59.1178 69.9073 58.9382 70.6113 59.1094C72.9303 59.6601 74.9288 60.7937 76.6068 62.5101C78.2847 64.2266 79.3921 66.2701 79.9288 68.6406C80.0944 69.3608 79.9081 70.0174 79.3697 70.6104C78.8314 71.2035 78.1481 71.5 77.3199 71.5ZM87.5691 94.375C82.2271 94.375 77.0192 93.1567 71.9455 90.7201C66.8718 88.2835 62.3787 85.064 58.4662 81.0618C54.5537 77.0595 51.4064 72.4633 49.0245 67.2732C46.6425 62.0831 45.4523 56.7566 45.454 51.2938C45.454 50.5313 45.7024 49.8958 46.1994 49.3875C46.6963 48.8792 47.3175 48.625 48.0629 48.625H58.1258C58.7056 48.625 59.2232 48.8156 59.6787 49.1969C60.1342 49.5781 60.4034 50.0653 60.4862 50.6583L62.1013 59.5542C62.1841 60.1472 62.1733 60.6878 62.069 61.1758C61.9646 61.6638 61.7269 62.0975 61.3559 62.4771L55.3927 68.7042C57.1319 71.7542 59.306 74.6135 61.9149 77.2823C64.5238 79.951 67.4019 82.2597 70.5491 84.2083L76.3881 78.2354C76.7608 77.8542 77.2478 77.5687 77.8491 77.3789C78.4504 77.1891 79.0401 77.1357 79.6182 77.2188L88.1903 78.9979C88.77 79.125 89.2463 79.4114 89.619 79.857C89.9917 80.3026 90.178 80.8211 90.178 81.4125V91.7063C90.178 92.4688 89.9296 93.1042 89.4326 93.6125C88.9357 94.1208 88.3145 94.375 87.5691 94.375Z" fill="white"/>
</svg>
